<mxfile host="Electron" agent="Mozilla/5.0 (X11; Linux x86_64) AppleWebKit/537.36 (KHTML, like Gecko) draw.io/28.2.8 Chrome/140.0.7339.240 Electron/38.4.0 Safari/537.36" version="28.2.8">
  <diagram name="Page-1" id="I1qVu183hGC_iuVQ6kgP">
    <mxGraphModel dx="1426" dy="852" grid="1" gridSize="10" guides="1" tooltips="1" connect="1" arrows="1" fold="1" page="1" pageScale="1" pageWidth="2336" pageHeight="1654" math="0" shadow="0">
      <root>
        <mxCell id="0" />
        <mxCell id="1" parent="0" />
        <mxCell id="SjXOArpb8AO9h-SlpNLg-1" style="edgeStyle=none;rounded=1;html=1;labelBackgroundColor=#FFFFFF;startArrow=none;startFill=0;startSize=5;endArrow=classicThin;endFill=1;endSize=5;jettySize=auto;orthogonalLoop=1;strokeColor=#B3B3B3;strokeWidth=1;fontFamily=Verdana;fontSize=12" parent="1" source="SjXOArpb8AO9h-SlpNLg-5" target="SjXOArpb8AO9h-SlpNLg-6" edge="1">
          <mxGeometry relative="1" as="geometry" />
        </mxCell>
        <mxCell id="SjXOArpb8AO9h-SlpNLg-2" value="&lt;font style=&quot;font-size: 12px;&quot; face=&quot;Verdana&quot;&gt;identified_by&lt;/font&gt;" style="edgeLabel;html=1;align=center;verticalAlign=middle;resizable=0;points=[];labelBackgroundColor=#FFFFFF;" parent="SjXOArpb8AO9h-SlpNLg-1" vertex="1" connectable="0">
          <mxGeometry x="-0.08" y="-2" relative="1" as="geometry">
            <mxPoint as="offset" />
          </mxGeometry>
        </mxCell>
        <mxCell id="SjXOArpb8AO9h-SlpNLg-3" value="classified_as" style="edgeStyle=none;rounded=1;html=1;labelBackgroundColor=#FFFFFF;startArrow=none;startFill=0;startSize=5;endArrow=classicThin;endFill=1;endSize=5;jettySize=auto;orthogonalLoop=1;strokeColor=#B3B3B3;strokeWidth=1;fontFamily=Verdana;fontSize=12" parent="1" source="SjXOArpb8AO9h-SlpNLg-5" target="SjXOArpb8AO9h-SlpNLg-13" edge="1">
          <mxGeometry relative="1" as="geometry" />
        </mxCell>
        <mxCell id="SjXOArpb8AO9h-SlpNLg-4" value="produced_by" style="edgeStyle=none;rounded=1;html=1;labelBackgroundColor=#FFFFFF;startArrow=none;startFill=0;startSize=5;endArrow=classicThin;endFill=1;endSize=5;jettySize=auto;orthogonalLoop=1;strokeColor=#B3B3B3;strokeWidth=1;fontFamily=Verdana;fontSize=12" parent="1" source="SjXOArpb8AO9h-SlpNLg-5" target="SjXOArpb8AO9h-SlpNLg-9" edge="1">
          <mxGeometry relative="1" as="geometry" />
        </mxCell>
        <mxCell id="SjXOArpb8AO9h-SlpNLg-5" value="PropositionalObject&lt;div&gt;&lt;span style=&quot;font-size: 11px; background-color: initial;&quot;&gt;(W&lt;/span&gt;&lt;span style=&quot;font-size: 11px; background-color: initial;&quot;&gt;ork)&lt;/span&gt;&lt;/div&gt;" style="ellipse;whiteSpace=wrap;html=1;rounded=0;shadow=1;comic=0;labelBackgroundColor=none;strokeWidth=2;fontFamily=Verdana;fontSize=12;align=center;fillColor=#ffff88;strokeColor=#36393d;" parent="1" vertex="1">
          <mxGeometry x="238" y="710" width="130" height="60" as="geometry" />
        </mxCell>
        <mxCell id="SjXOArpb8AO9h-SlpNLg-6" value="&lt;span&gt;Name&lt;/span&gt;&lt;div&gt;&lt;span&gt;&lt;font style=&quot;font-size: 9px;&quot;&gt;(= literal title + language)&lt;/font&gt;&lt;/span&gt;&lt;/div&gt;" style="ellipse;whiteSpace=wrap;html=1;rounded=0;shadow=1;comic=0;labelBackgroundColor=none;strokeWidth=1;fontFamily=Verdana;fontSize=12;align=center;fillColor=#f0a30a;strokeColor=#BD7000;fontColor=#000000;" parent="1" vertex="1">
          <mxGeometry x="620" y="820" width="130" height="60" as="geometry" />
        </mxCell>
        <mxCell id="SjXOArpb8AO9h-SlpNLg-7" value="" style="edgeStyle=none;rounded=1;html=1;labelBackgroundColor=none;startArrow=none;startFill=0;startSize=5;endArrow=classicThin;endFill=1;endSize=5;jettySize=auto;orthogonalLoop=1;strokeColor=#B3B3B3;strokeWidth=1;fontFamily=Verdana;fontSize=12" parent="1" source="SjXOArpb8AO9h-SlpNLg-9" target="SjXOArpb8AO9h-SlpNLg-11" edge="1">
          <mxGeometry relative="1" as="geometry" />
        </mxCell>
        <mxCell id="SjXOArpb8AO9h-SlpNLg-8" value="&lt;font face=&quot;Verdana&quot; style=&quot;font-size: 12px;&quot;&gt;influenced_by&lt;/font&gt;" style="edgeLabel;html=1;align=center;verticalAlign=middle;resizable=0;points=[];" parent="SjXOArpb8AO9h-SlpNLg-7" vertex="1" connectable="0">
          <mxGeometry x="-0.0644" relative="1" as="geometry">
            <mxPoint y="-1" as="offset" />
          </mxGeometry>
        </mxCell>
        <mxCell id="SjXOArpb8AO9h-SlpNLg-9" value="&lt;span&gt;Production&lt;/span&gt;" style="ellipse;whiteSpace=wrap;html=1;rounded=0;shadow=1;comic=0;labelBackgroundColor=none;strokeWidth=1;fontFamily=Verdana;fontSize=12;align=center;fillColor=#cce5ff;strokeColor=#36393d;" parent="1" vertex="1">
          <mxGeometry x="130" y="810" width="130" height="60" as="geometry" />
        </mxCell>
        <mxCell id="SjXOArpb8AO9h-SlpNLg-11" value="&lt;span&gt;Person&lt;/span&gt;&lt;div&gt;&lt;span&gt;&lt;font style=&quot;font-size: 9px;&quot;&gt;(= director)&lt;/font&gt;&lt;/span&gt;&lt;/div&gt;" style="ellipse;whiteSpace=wrap;html=1;rounded=0;shadow=1;comic=0;labelBackgroundColor=none;strokeWidth=1;fontFamily=Verdana;fontSize=12;align=center;fillColor=#ffcccc;strokeColor=#36393d;" parent="1" vertex="1">
          <mxGeometry x="20" y="920" width="130" height="60" as="geometry" />
        </mxCell>
        <mxCell id="SjXOArpb8AO9h-SlpNLg-13" value="Type&lt;div&gt;&lt;font style=&quot;font-size: 11px;&quot;&gt;(Abstract Work)&lt;/font&gt;&lt;/div&gt;" style="ellipse;whiteSpace=wrap;html=1;rounded=0;shadow=1;comic=0;labelBackgroundColor=none;strokeWidth=1;fontFamily=Verdana;fontSize=12;align=center;fillColor=#ffcc99;strokeColor=#36393d;" parent="1" vertex="1">
          <mxGeometry x="30" y="620" width="130" height="60" as="geometry" />
        </mxCell>
        <mxCell id="SjXOArpb8AO9h-SlpNLg-14" value="" style="edgeStyle=none;rounded=1;html=1;labelBackgroundColor=#FFFFFF;startArrow=none;startFill=0;startSize=5;endArrow=classicThin;endFill=1;endSize=5;jettySize=auto;orthogonalLoop=1;strokeColor=#B3B3B3;strokeWidth=1;fontFamily=Verdana;fontSize=12;" parent="1" source="SjXOArpb8AO9h-SlpNLg-9" target="SjXOArpb8AO9h-SlpNLg-16" edge="1">
          <mxGeometry relative="1" as="geometry">
            <mxPoint x="686" y="715" as="sourcePoint" />
          </mxGeometry>
        </mxCell>
        <mxCell id="SjXOArpb8AO9h-SlpNLg-15" value="&lt;font style=&quot;font-size: 12px;&quot; face=&quot;Verdana&quot;&gt;timespan&lt;/font&gt;" style="edgeLabel;html=1;align=center;verticalAlign=middle;resizable=0;points=[];labelBackgroundColor=#FFFFFF;" parent="SjXOArpb8AO9h-SlpNLg-14" vertex="1" connectable="0">
          <mxGeometry x="-0.1032" y="-1" relative="1" as="geometry">
            <mxPoint y="1" as="offset" />
          </mxGeometry>
        </mxCell>
        <mxCell id="SjXOArpb8AO9h-SlpNLg-16" value="&lt;span&gt;TimeSpan&lt;/span&gt;&lt;div&gt;&lt;span&gt;&lt;font style=&quot;font-size: 9px;&quot;&gt;(= premiere date)&lt;/font&gt;&lt;/span&gt;&lt;/div&gt;" style="ellipse;whiteSpace=wrap;html=1;rounded=0;shadow=1;comic=0;labelBackgroundColor=none;strokeWidth=1;fontFamily=Verdana;fontSize=12;align=center;fillColor=#b0e3e6;strokeColor=#0e8088;" parent="1" vertex="1">
          <mxGeometry x="190" y="920" width="130" height="60" as="geometry" />
        </mxCell>
        <mxCell id="SjXOArpb8AO9h-SlpNLg-17" value="&lt;span&gt;AttributeAssignment&lt;/span&gt;" style="ellipse;whiteSpace=wrap;html=1;rounded=0;shadow=1;comic=0;labelBackgroundColor=none;strokeWidth=1;fontFamily=Verdana;fontSize=12;align=center;fillColor=#cce5ff;strokeColor=#36393d;" parent="1" vertex="1">
          <mxGeometry x="880" y="530" width="130" height="60" as="geometry" />
        </mxCell>
        <mxCell id="SjXOArpb8AO9h-SlpNLg-18" value="attributed_by" style="edgeStyle=none;rounded=1;html=1;labelBackgroundColor=#FFFFFF;startArrow=none;startFill=0;startSize=5;endArrow=classicThin;endFill=1;endSize=5;jettySize=auto;orthogonalLoop=1;strokeColor=#B3B3B3;strokeWidth=1;fontFamily=Verdana;fontSize=12" parent="1" source="SjXOArpb8AO9h-SlpNLg-5" target="SjXOArpb8AO9h-SlpNLg-113" edge="1">
          <mxGeometry relative="1" as="geometry">
            <mxPoint x="370" y="750" as="sourcePoint" />
            <mxPoint x="486" y="720" as="targetPoint" />
          </mxGeometry>
        </mxCell>
        <mxCell id="SjXOArpb8AO9h-SlpNLg-20" value="assigned" style="edgeStyle=none;rounded=1;html=1;labelBackgroundColor=#FFFFFF;startArrow=none;startFill=0;startSize=5;endArrow=classicThin;endFill=1;endSize=5;jettySize=auto;orthogonalLoop=1;strokeColor=#B3B3B3;strokeWidth=1;fontFamily=Verdana;fontSize=12" parent="1" source="SjXOArpb8AO9h-SlpNLg-17" target="SjXOArpb8AO9h-SlpNLg-89" edge="1">
          <mxGeometry relative="1" as="geometry">
            <mxPoint x="615" y="693" as="sourcePoint" />
            <mxPoint x="536.4924888190735" y="546.2437406825613" as="targetPoint" />
          </mxGeometry>
        </mxCell>
        <mxCell id="SjXOArpb8AO9h-SlpNLg-22" value="influen&lt;span style=&quot;background-color: light-dark(rgb(255, 255, 255), rgb(18, 18, 18)); color: light-dark(rgb(0, 0, 0), rgb(255, 255, 255));&quot;&gt;ced_by&lt;/span&gt;" style="edgeStyle=none;rounded=1;html=1;labelBackgroundColor=#FFFFFF;startArrow=none;startFill=0;startSize=5;endArrow=classicThin;endFill=1;endSize=5;jettySize=auto;orthogonalLoop=1;strokeColor=#B3B3B3;strokeWidth=1;fontFamily=Verdana;fontSize=12" parent="1" source="SjXOArpb8AO9h-SlpNLg-5" target="SjXOArpb8AO9h-SlpNLg-104" edge="1">
          <mxGeometry relative="1" as="geometry">
            <mxPoint x="313" y="795" as="sourcePoint" />
            <mxPoint x="599.1657944371373" y="964.3846297965372" as="targetPoint" />
          </mxGeometry>
        </mxCell>
        <mxCell id="SjXOArpb8AO9h-SlpNLg-23" style="edgeStyle=none;rounded=1;html=1;labelBackgroundColor=#FFFFFF;startArrow=none;startFill=0;startSize=5;endArrow=classicThin;endFill=1;endSize=5;jettySize=auto;orthogonalLoop=1;strokeColor=#B3B3B3;strokeWidth=1;fontFamily=Verdana;fontSize=12" parent="1" source="SjXOArpb8AO9h-SlpNLg-27" target="Db7EYiY2nObxvuQxKgXs-2" edge="1">
          <mxGeometry relative="1" as="geometry">
            <mxPoint x="1299.8873565046313" y="1100.8221239445852" as="targetPoint" />
          </mxGeometry>
        </mxCell>
        <mxCell id="SjXOArpb8AO9h-SlpNLg-24" value="&lt;font style=&quot;font-size: 12px;&quot; face=&quot;Verdana&quot;&gt;part_of&lt;/font&gt;" style="edgeLabel;html=1;align=center;verticalAlign=middle;resizable=0;points=[];labelBackgroundColor=#FFFFFF;" parent="SjXOArpb8AO9h-SlpNLg-23" vertex="1" connectable="0">
          <mxGeometry x="-0.08" y="-1" relative="1" as="geometry">
            <mxPoint as="offset" />
          </mxGeometry>
        </mxCell>
        <mxCell id="SjXOArpb8AO9h-SlpNLg-25" value="&lt;span style=&quot;background-color: rgb(255, 255, 255);&quot;&gt;classified_as&lt;/span&gt;" style="edgeStyle=none;rounded=1;html=1;labelBackgroundColor=#FFFFFF;startArrow=none;startFill=0;startSize=5;endArrow=classicThin;endFill=1;endSize=5;jettySize=auto;orthogonalLoop=1;strokeColor=#B3B3B3;strokeWidth=1;fontFamily=Verdana;fontSize=12" parent="1" source="SjXOArpb8AO9h-SlpNLg-27" target="SjXOArpb8AO9h-SlpNLg-39" edge="1">
          <mxGeometry relative="1" as="geometry" />
        </mxCell>
        <mxCell id="SjXOArpb8AO9h-SlpNLg-27" value="&lt;div&gt;Activity&lt;/div&gt;&lt;div&gt;&lt;font style=&quot;font-size: 11px;&quot;&gt;(Production)&lt;/font&gt;&lt;/div&gt;" style="ellipse;whiteSpace=wrap;html=1;rounded=0;shadow=1;comic=0;labelBackgroundColor=none;strokeWidth=2;fontFamily=Verdana;fontSize=12;align=center;fillColor=#1ba1e2;strokeColor=#36393D;fontColor=#ffffff;" parent="1" vertex="1">
          <mxGeometry x="1048" y="710" width="130" height="60" as="geometry" />
        </mxCell>
        <mxCell id="SjXOArpb8AO9h-SlpNLg-28" value="took_place_at" style="edgeStyle=none;rounded=1;html=1;labelBackgroundColor=#FFFFFF;startArrow=none;startFill=0;startSize=5;endArrow=classicThin;endFill=1;endSize=5;jettySize=auto;orthogonalLoop=1;strokeColor=#B3B3B3;strokeWidth=1;fontFamily=Verdana;fontSize=12" parent="1" source="SjXOArpb8AO9h-SlpNLg-27" target="SjXOArpb8AO9h-SlpNLg-36" edge="1">
          <mxGeometry relative="1" as="geometry" />
        </mxCell>
        <mxCell id="SjXOArpb8AO9h-SlpNLg-29" value="timespan" style="edgeStyle=none;rounded=1;html=1;labelBackgroundColor=#FFFFFF;startArrow=none;startFill=0;startSize=5;endArrow=classicThin;endFill=1;endSize=5;jettySize=auto;orthogonalLoop=1;strokeColor=#B3B3B3;strokeWidth=1;fontFamily=Verdana;fontSize=12" parent="1" source="SjXOArpb8AO9h-SlpNLg-27" target="SjXOArpb8AO9h-SlpNLg-35" edge="1">
          <mxGeometry relative="1" as="geometry" />
        </mxCell>
        <mxCell id="SjXOArpb8AO9h-SlpNLg-31" value="carried_out_by" style="edgeStyle=none;rounded=1;html=1;labelBackgroundColor=#FFFFFF;startArrow=none;startFill=0;startSize=5;endArrow=classicThin;endFill=1;endSize=5;jettySize=auto;orthogonalLoop=1;strokeColor=#B3B3B3;strokeWidth=1;fontFamily=Verdana;fontSize=12" parent="1" source="SjXOArpb8AO9h-SlpNLg-46" target="SjXOArpb8AO9h-SlpNLg-33" edge="1">
          <mxGeometry relative="1" as="geometry">
            <mxPoint x="1488" y="850" as="sourcePoint" />
          </mxGeometry>
        </mxCell>
        <mxCell id="SjXOArpb8AO9h-SlpNLg-33" value="&lt;span&gt;Person / Group&lt;/span&gt;&lt;div&gt;&lt;span&gt;&lt;font style=&quot;font-size: 8px;&quot;&gt;(director, actor, production crew...)&lt;/font&gt;&lt;/span&gt;&lt;/div&gt;" style="ellipse;whiteSpace=wrap;html=1;rounded=0;shadow=1;comic=0;labelBackgroundColor=none;strokeWidth=1;fontFamily=Verdana;fontSize=12;align=center;fillColor=#f8cecc;strokeColor=#b85450;" parent="1" vertex="1">
          <mxGeometry x="840" y="960" width="130" height="60" as="geometry" />
        </mxCell>
        <mxCell id="SjXOArpb8AO9h-SlpNLg-34" value="used_specific_object" style="edgeStyle=none;rounded=1;html=1;labelBackgroundColor=#FFFFFF;startArrow=none;startFill=0;startSize=5;endArrow=classicThin;endFill=1;endSize=5;jettySize=auto;orthogonalLoop=1;strokeColor=#B3B3B3;strokeWidth=1;fontFamily=Verdana;fontSize=12;exitX=0.792;exitY=0.056;exitDx=0;exitDy=0;entryX=0.5;entryY=1;entryDx=0;entryDy=0;exitPerimeter=0;" parent="1" source="SjXOArpb8AO9h-SlpNLg-27" target="SjXOArpb8AO9h-SlpNLg-73" edge="1">
          <mxGeometry x="-0.0269" y="-30" relative="1" as="geometry">
            <mxPoint x="1160" y="670" as="sourcePoint" />
            <mxPoint x="1520" y="330" as="targetPoint" />
            <mxPoint as="offset" />
          </mxGeometry>
        </mxCell>
        <mxCell id="SjXOArpb8AO9h-SlpNLg-35" value="&lt;span&gt;TimeSpan&lt;/span&gt;&lt;div&gt;&lt;span&gt;&lt;font style=&quot;font-size: 9px;&quot;&gt;(= starting and ending dates of the Production)&lt;/font&gt;&lt;/span&gt;&lt;/div&gt;" style="ellipse;whiteSpace=wrap;html=1;rounded=0;shadow=1;comic=0;labelBackgroundColor=none;strokeWidth=1;fontFamily=Verdana;fontSize=12;align=center;fillColor=#b0e3e6;strokeColor=#0e8088;" parent="1" vertex="1">
          <mxGeometry x="1350" y="770" width="130" height="60" as="geometry" />
        </mxCell>
        <mxCell id="SjXOArpb8AO9h-SlpNLg-36" value="&lt;span&gt;Place&lt;/span&gt;&lt;div&gt;&lt;span&gt;&lt;font style=&quot;font-size: 9px;&quot;&gt;(= theatre)&lt;/font&gt;&lt;/span&gt;&lt;/div&gt;" style="ellipse;whiteSpace=wrap;html=1;rounded=0;shadow=1;comic=0;labelBackgroundColor=none;strokeWidth=1;fontFamily=Verdana;fontSize=12;align=center;fillColor=#cdeb8b;strokeColor=#36393d;" parent="1" vertex="1">
          <mxGeometry x="1290" y="880" width="130" height="60" as="geometry" />
        </mxCell>
        <mxCell id="SjXOArpb8AO9h-SlpNLg-38" value="influenced_by" style="edgeStyle=none;rounded=1;html=1;labelBackgroundColor=#FFFFFF;startArrow=none;startFill=0;startSize=5;endArrow=classicThin;endFill=1;endSize=5;jettySize=auto;orthogonalLoop=1;strokeColor=#B3B3B3;strokeWidth=1;fontFamily=Verdana;fontSize=12" parent="1" source="SjXOArpb8AO9h-SlpNLg-27" target="SjXOArpb8AO9h-SlpNLg-5" edge="1">
          <mxGeometry relative="1" as="geometry">
            <mxPoint x="928" y="770" as="targetPoint" />
          </mxGeometry>
        </mxCell>
        <mxCell id="SjXOArpb8AO9h-SlpNLg-39" value="type&lt;div style=&quot;font-size: 11px;&quot;&gt;(&lt;font style=&quot;font-size: 11px;&quot;&gt;LinguisticObject&lt;/font&gt;&lt;/div&gt;&lt;div style=&quot;&quot;&gt;&lt;font style=&quot;font-size: 9px;&quot;&gt; = genre&lt;/font&gt;&lt;span style=&quot;font-size: 11px;&quot;&gt;)&lt;/span&gt;&lt;/div&gt;" style="ellipse;whiteSpace=wrap;html=1;rounded=0;shadow=1;comic=0;labelBackgroundColor=none;strokeWidth=1;fontFamily=Verdana;fontSize=12;align=center;rotation=0;fillColor=#ffcc99;strokeColor=#36393d;" parent="1" vertex="1">
          <mxGeometry x="790" y="640" width="130" height="60" as="geometry" />
        </mxCell>
        <mxCell id="SjXOArpb8AO9h-SlpNLg-40" value="identified_by" style="edgeStyle=none;rounded=1;html=1;labelBackgroundColor=#FFFFFF;startArrow=none;startFill=0;startSize=5;endArrow=classicThin;endFill=1;endSize=5;jettySize=auto;orthogonalLoop=1;strokeColor=#B3B3B3;strokeWidth=1;fontFamily=Verdana;fontSize=12" parent="1" source="SjXOArpb8AO9h-SlpNLg-27" target="SjXOArpb8AO9h-SlpNLg-6" edge="1">
          <mxGeometry relative="1" as="geometry">
            <mxPoint x="902.675616654526" y="896.2370638218881" as="targetPoint" />
          </mxGeometry>
        </mxCell>
        <mxCell id="SjXOArpb8AO9h-SlpNLg-45" value="produced_by" style="edgeStyle=none;rounded=1;html=1;labelBackgroundColor=#FFFFFF;startArrow=none;startFill=0;startSize=5;endArrow=classicThin;endFill=1;endSize=5;jettySize=auto;orthogonalLoop=1;strokeColor=#B3B3B3;strokeWidth=1;fontFamily=Verdana;fontSize=12" parent="1" source="SjXOArpb8AO9h-SlpNLg-27" target="SjXOArpb8AO9h-SlpNLg-46" edge="1">
          <mxGeometry relative="1" as="geometry">
            <mxPoint x="1309.9367406987974" y="394.99666707698384" as="sourcePoint" />
          </mxGeometry>
        </mxCell>
        <mxCell id="SjXOArpb8AO9h-SlpNLg-46" value="&lt;span&gt;Production&lt;/span&gt;" style="ellipse;whiteSpace=wrap;html=1;rounded=0;shadow=1;comic=0;labelBackgroundColor=none;strokeWidth=1;fontFamily=Verdana;fontSize=12;align=center;fillColor=#cce5ff;strokeColor=#36393d;" parent="1" vertex="1">
          <mxGeometry x="960" y="840" width="130" height="60" as="geometry" />
        </mxCell>
        <mxCell id="SjXOArpb8AO9h-SlpNLg-47" value="&lt;span&gt;Role&lt;/span&gt;&lt;div&gt;&lt;span&gt;&lt;font style=&quot;font-size: 9px;&quot;&gt;(director, actor, sponsor...)&lt;/font&gt;&lt;/span&gt;&lt;/div&gt;" style="ellipse;whiteSpace=wrap;html=1;rounded=0;shadow=1;comic=0;labelBackgroundColor=none;strokeWidth=1;fontFamily=Verdana;fontSize=12;align=center;fillColor=#cce5ff;strokeColor=#36393d;" parent="1" vertex="1">
          <mxGeometry x="1018" y="960" width="130" height="60" as="geometry" />
        </mxCell>
        <mxCell id="SjXOArpb8AO9h-SlpNLg-48" value="technique" style="edgeStyle=none;rounded=1;html=1;labelBackgroundColor=#FFFFFF;startArrow=none;startFill=0;startSize=5;endArrow=classicThin;endFill=1;endSize=5;jettySize=auto;orthogonalLoop=1;strokeColor=#B3B3B3;strokeWidth=1;fontFamily=Verdana;fontSize=12" parent="1" source="SjXOArpb8AO9h-SlpNLg-46" target="SjXOArpb8AO9h-SlpNLg-47" edge="1">
          <mxGeometry relative="1" as="geometry">
            <mxPoint x="1337" y="886" as="sourcePoint" />
            <mxPoint x="1429" y="954" as="targetPoint" />
          </mxGeometry>
        </mxCell>
        <mxCell id="SjXOArpb8AO9h-SlpNLg-49" value="" style="edgeStyle=none;rounded=1;html=1;labelBackgroundColor=#FFFFFF;startArrow=none;startFill=0;startSize=5;endArrow=classicThin;endFill=1;endSize=5;jettySize=auto;orthogonalLoop=1;strokeColor=#B3B3B3;strokeWidth=1;fontFamily=Verdana;fontSize=12" parent="1" source="SjXOArpb8AO9h-SlpNLg-27" target="SjXOArpb8AO9h-SlpNLg-17" edge="1">
          <mxGeometry relative="1" as="geometry">
            <mxPoint x="1108" y="820" as="sourcePoint" />
          </mxGeometry>
        </mxCell>
        <mxCell id="SjXOArpb8AO9h-SlpNLg-50" value="&lt;font face=&quot;Verdana&quot; style=&quot;font-size: 12px;&quot;&gt;attributed_by&lt;/font&gt;" style="edgeLabel;html=1;align=center;verticalAlign=middle;resizable=0;points=[];" parent="SjXOArpb8AO9h-SlpNLg-49" vertex="1" connectable="0">
          <mxGeometry x="-0.0411" y="-1" relative="1" as="geometry">
            <mxPoint as="offset" />
          </mxGeometry>
        </mxCell>
        <mxCell id="SjXOArpb8AO9h-SlpNLg-52" style="edgeStyle=none;rounded=1;html=1;labelBackgroundColor=none;startArrow=none;startFill=0;startSize=5;endArrow=classicThin;endFill=1;endSize=5;jettySize=auto;orthogonalLoop=1;strokeColor=#B3B3B3;strokeWidth=1;fontFamily=Verdana;fontSize=12" parent="1" source="SjXOArpb8AO9h-SlpNLg-56" target="SjXOArpb8AO9h-SlpNLg-57" edge="1">
          <mxGeometry relative="1" as="geometry" />
        </mxCell>
        <mxCell id="SjXOArpb8AO9h-SlpNLg-53" value="&lt;font face=&quot;Verdana&quot; style=&quot;font-size: 12px; background-color: rgb(255, 255, 255);&quot;&gt;timespan&lt;/font&gt;" style="edgeLabel;html=1;align=center;verticalAlign=middle;resizable=0;points=[];" parent="SjXOArpb8AO9h-SlpNLg-52" vertex="1" connectable="0">
          <mxGeometry x="-0.16" y="-1" relative="1" as="geometry">
            <mxPoint as="offset" />
          </mxGeometry>
        </mxCell>
        <mxCell id="SjXOArpb8AO9h-SlpNLg-54" value="&lt;span style=&quot;background-color: rgb(255, 255, 255);&quot;&gt;part_of&lt;/span&gt;" style="edgeStyle=none;rounded=1;html=1;labelBackgroundColor=none;startArrow=none;startFill=0;startSize=5;endArrow=classicThin;endFill=1;endSize=5;jettySize=auto;orthogonalLoop=1;strokeColor=#B3B3B3;strokeWidth=1;fontFamily=Verdana;fontSize=12" parent="1" source="SjXOArpb8AO9h-SlpNLg-56" target="SjXOArpb8AO9h-SlpNLg-27" edge="1">
          <mxGeometry relative="1" as="geometry">
            <mxPoint x="1818" y="790" as="targetPoint" />
          </mxGeometry>
        </mxCell>
        <mxCell id="SjXOArpb8AO9h-SlpNLg-55" value="&lt;span style=&quot;background-color: rgb(255, 255, 255);&quot;&gt;classified_as&lt;/span&gt;" style="edgeStyle=none;rounded=1;html=1;labelBackgroundColor=none;startArrow=none;startFill=0;startSize=5;endArrow=classicThin;endFill=1;endSize=5;jettySize=auto;orthogonalLoop=1;strokeColor=#B3B3B3;strokeWidth=1;fontFamily=Verdana;fontSize=12" parent="1" source="SjXOArpb8AO9h-SlpNLg-56" target="SjXOArpb8AO9h-SlpNLg-58" edge="1">
          <mxGeometry relative="1" as="geometry" />
        </mxCell>
        <mxCell id="SjXOArpb8AO9h-SlpNLg-56" value="Activity&lt;div&gt;&lt;font style=&quot;font-size: 11px;&quot;&gt;(Show)&lt;/font&gt;&lt;/div&gt;" style="ellipse;whiteSpace=wrap;html=1;rounded=0;shadow=1;comic=0;labelBackgroundColor=none;strokeWidth=2;fontFamily=Verdana;fontSize=12;align=center;fillColor=#1ba1e2;fontColor=#ffffff;strokeColor=#36393D;" parent="1" vertex="1">
          <mxGeometry x="1668" y="710" width="130" height="60" as="geometry" />
        </mxCell>
        <mxCell id="SjXOArpb8AO9h-SlpNLg-57" value="&lt;span&gt;TimeSpan&lt;/span&gt;&lt;div&gt;&lt;span&gt;&lt;font style=&quot;font-size: 9px;&quot;&gt;(= date and hour of the performance)&lt;/font&gt;&lt;/span&gt;&lt;/div&gt;" style="ellipse;whiteSpace=wrap;html=1;rounded=0;shadow=1;comic=0;labelBackgroundColor=none;strokeWidth=1;fontFamily=Verdana;fontSize=12;align=center;fillColor=#b0e3e6;strokeColor=#0e8088;" parent="1" vertex="1">
          <mxGeometry x="1908" y="710" width="130" height="60" as="geometry" />
        </mxCell>
        <mxCell id="SjXOArpb8AO9h-SlpNLg-58" value="&lt;span&gt;Type&lt;/span&gt;&lt;div&gt;&lt;span&gt;&lt;font style=&quot;font-size: 11px;&quot;&gt;(Show)&lt;/font&gt;&lt;/span&gt;&lt;/div&gt;" style="ellipse;whiteSpace=wrap;html=1;rounded=0;shadow=1;comic=0;labelBackgroundColor=none;strokeWidth=1;fontFamily=Verdana;fontSize=12;align=center;fillColor=#ffcc99;strokeColor=#36393d;" parent="1" vertex="1">
          <mxGeometry x="1860" y="830" width="130" height="60" as="geometry" />
        </mxCell>
        <mxCell id="SjXOArpb8AO9h-SlpNLg-60" value="&lt;span style=&quot;background-color: rgb(255, 255, 255);&quot;&gt;member_of&lt;/span&gt;" style="edgeStyle=none;rounded=1;html=1;labelBackgroundColor=none;startArrow=none;startFill=0;startSize=5;endArrow=classicThin;endFill=1;endSize=5;jettySize=auto;orthogonalLoop=1;strokeColor=#B3B3B3;strokeWidth=1;fontFamily=Verdana;fontSize=12" parent="1" source="SjXOArpb8AO9h-SlpNLg-56" target="SjXOArpb8AO9h-SlpNLg-73" edge="1">
          <mxGeometry relative="1" as="geometry">
            <mxPoint x="1770" y="610" as="sourcePoint" />
            <mxPoint x="1695.1387013699677" y="633.5966911084051" as="targetPoint" />
          </mxGeometry>
        </mxCell>
        <mxCell id="SjXOArpb8AO9h-SlpNLg-66" value="" style="edgeStyle=none;rounded=1;html=1;labelBackgroundColor=#FFFFFF;startArrow=none;startFill=0;startSize=5;endArrow=classicThin;endFill=1;endSize=5;jettySize=auto;orthogonalLoop=1;strokeColor=#B3B3B3;strokeWidth=1;fontFamily=Verdana;fontSize=12" parent="1" source="SjXOArpb8AO9h-SlpNLg-56" target="SjXOArpb8AO9h-SlpNLg-115" edge="1">
          <mxGeometry relative="1" as="geometry">
            <mxPoint x="1845" y="820" as="sourcePoint" />
          </mxGeometry>
        </mxCell>
        <mxCell id="SjXOArpb8AO9h-SlpNLg-67" value="&lt;font face=&quot;Verdana&quot; style=&quot;font-size: 12px;&quot;&gt;attributed_by&lt;/font&gt;" style="edgeLabel;html=1;align=center;verticalAlign=middle;resizable=0;points=[];" parent="SjXOArpb8AO9h-SlpNLg-66" vertex="1" connectable="0">
          <mxGeometry x="-0.0411" y="-1" relative="1" as="geometry">
            <mxPoint x="-110" y="-29" as="offset" />
          </mxGeometry>
        </mxCell>
        <mxCell id="SjXOArpb8AO9h-SlpNLg-69" style="edgeStyle=none;rounded=1;html=1;labelBackgroundColor=none;startArrow=none;startFill=0;startSize=5;endArrow=classicThin;endFill=1;endSize=5;jettySize=auto;orthogonalLoop=1;strokeColor=#B3B3B3;strokeWidth=1;fontFamily=Verdana;fontSize=12" parent="1" source="SjXOArpb8AO9h-SlpNLg-73" target="SjXOArpb8AO9h-SlpNLg-74" edge="1">
          <mxGeometry relative="1" as="geometry" />
        </mxCell>
        <mxCell id="SjXOArpb8AO9h-SlpNLg-70" value="&lt;font face=&quot;Verdana&quot; style=&quot;font-size: 12px; background-color: rgb(255, 255, 255);&quot;&gt;timespan&lt;/font&gt;" style="edgeLabel;html=1;align=center;verticalAlign=middle;resizable=0;points=[];" parent="SjXOArpb8AO9h-SlpNLg-69" vertex="1" connectable="0">
          <mxGeometry x="-0.16" y="-1" relative="1" as="geometry">
            <mxPoint as="offset" />
          </mxGeometry>
        </mxCell>
        <mxCell id="SjXOArpb8AO9h-SlpNLg-71" value="&lt;span style=&quot;background-color: rgb(255, 255, 255);&quot;&gt;used_for&lt;/span&gt;" style="edgeStyle=none;rounded=1;html=1;labelBackgroundColor=none;startArrow=none;startFill=0;startSize=5;endArrow=classicThin;endFill=1;endSize=5;jettySize=auto;orthogonalLoop=1;strokeColor=#B3B3B3;strokeWidth=1;fontFamily=Verdana;fontSize=12;entryX=0.362;entryY=0.033;entryDx=0;entryDy=0;entryPerimeter=0;exitX=0;exitY=1;exitDx=0;exitDy=0;" parent="1" source="SjXOArpb8AO9h-SlpNLg-73" target="SjXOArpb8AO9h-SlpNLg-27" edge="1">
          <mxGeometry x="-0.2238" y="1" relative="1" as="geometry">
            <mxPoint x="1214.4645918080482" y="396.1623270958098" as="targetPoint" />
            <mxPoint as="offset" />
          </mxGeometry>
        </mxCell>
        <mxCell id="SjXOArpb8AO9h-SlpNLg-72" value="&lt;span style=&quot;background-color: rgb(255, 255, 255);&quot;&gt;classified_as&lt;/span&gt;" style="edgeStyle=none;rounded=1;html=1;labelBackgroundColor=none;startArrow=none;startFill=0;startSize=5;endArrow=classicThin;endFill=1;endSize=5;jettySize=auto;orthogonalLoop=1;strokeColor=#B3B3B3;strokeWidth=1;fontFamily=Verdana;fontSize=12" parent="1" source="SjXOArpb8AO9h-SlpNLg-73" target="SjXOArpb8AO9h-SlpNLg-75" edge="1">
          <mxGeometry relative="1" as="geometry" />
        </mxCell>
        <mxCell id="SjXOArpb8AO9h-SlpNLg-73" value="&lt;span&gt;&lt;font style=&quot;color: rgb(255, 255, 255);&quot;&gt;Set&lt;/font&gt;&lt;/span&gt;&lt;div style=&quot;color: rgb(0, 0, 0);&quot;&gt;&lt;font style=&quot;font-size: 9px; color: rgb(255, 255, 255);&quot;&gt;(= practical information&lt;/font&gt;&lt;span style=&quot;color: light-dark(rgb(255, 255, 255), rgb(18, 18, 18)); font-size: 9px; background-color: transparent;&quot;&gt;)&lt;/span&gt;&lt;/div&gt;" style="ellipse;whiteSpace=wrap;html=1;rounded=0;shadow=1;comic=0;labelBackgroundColor=none;strokeWidth=2;fontFamily=Verdana;fontSize=12;align=center;fillColor=#1ba1e2;fontColor=#ffffff;strokeColor=#36393D;" parent="1" vertex="1">
          <mxGeometry x="1450" y="200" width="130" height="60" as="geometry" />
        </mxCell>
        <mxCell id="SjXOArpb8AO9h-SlpNLg-74" value="&lt;span&gt;Duration&lt;/span&gt;&lt;div&gt;&lt;span&gt;&lt;font style=&quot;font-size: 9px;&quot;&gt;(= duration of the show)&lt;/font&gt;&lt;/span&gt;&lt;/div&gt;" style="ellipse;whiteSpace=wrap;html=1;rounded=0;shadow=1;comic=0;labelBackgroundColor=none;strokeWidth=1;fontFamily=Verdana;fontSize=12;align=center;fillColor=#b0e3e6;strokeColor=#0e8088;" parent="1" vertex="1">
          <mxGeometry x="1682" y="125" width="130" height="60" as="geometry" />
        </mxCell>
        <mxCell id="SjXOArpb8AO9h-SlpNLg-75" value="&lt;span&gt;Type&lt;/span&gt;&lt;div&gt;&lt;span&gt;&lt;font style=&quot;font-size: 11px;&quot;&gt;(Collection)&lt;/font&gt;&lt;/span&gt;&lt;/div&gt;" style="ellipse;whiteSpace=wrap;html=1;rounded=0;shadow=1;comic=0;labelBackgroundColor=none;strokeWidth=1;fontFamily=Verdana;fontSize=12;align=center;fillColor=#ffcc99;strokeColor=#36393d;" parent="1" vertex="1">
          <mxGeometry x="1450" y="90" width="130" height="60" as="geometry" />
        </mxCell>
        <mxCell id="SjXOArpb8AO9h-SlpNLg-77" value="&lt;span style=&quot;background-color: rgb(255, 255, 255);&quot;&gt;dimension&lt;/span&gt;" style="edgeStyle=none;rounded=1;html=1;labelBackgroundColor=none;startArrow=none;startFill=0;startSize=5;endArrow=classicThin;endFill=1;endSize=5;jettySize=auto;orthogonalLoop=1;strokeColor=#B3B3B3;strokeWidth=1;fontFamily=Verdana;fontSize=12" parent="1" source="SjXOArpb8AO9h-SlpNLg-73" target="SjXOArpb8AO9h-SlpNLg-78" edge="1">
          <mxGeometry relative="1" as="geometry">
            <mxPoint x="1460" y="-5" as="sourcePoint" />
          </mxGeometry>
        </mxCell>
        <mxCell id="SjXOArpb8AO9h-SlpNLg-78" value="&lt;span style=&quot;color: rgb(0, 0, 0);&quot;&gt;MonetaryAmmount&lt;/span&gt;&lt;div style=&quot;color: rgb(0, 0, 0);&quot;&gt;&lt;font style=&quot;font-size: 9px;&quot;&gt;(=&amp;nbsp;&lt;/font&gt;&lt;span style=&quot;font-size: 9px; background-color: transparent;&quot;&gt;price)&lt;/span&gt;&lt;/div&gt;" style="ellipse;whiteSpace=wrap;html=1;rounded=0;shadow=1;comic=0;labelBackgroundColor=none;strokeWidth=1;fontFamily=Verdana;fontSize=12;align=center;rotation=0;fillColor=#eeeeee;strokeColor=#36393d;" parent="1" vertex="1">
          <mxGeometry x="1672" y="285" width="130" height="60" as="geometry" />
        </mxCell>
        <mxCell id="SjXOArpb8AO9h-SlpNLg-83" value="" style="edgeStyle=none;rounded=1;html=1;labelBackgroundColor=#FFFFFF;startArrow=none;startFill=0;startSize=5;endArrow=classicThin;endFill=1;endSize=5;jettySize=auto;orthogonalLoop=1;strokeColor=#B3B3B3;strokeWidth=1;fontFamily=Verdana;fontSize=12" parent="1" source="SjXOArpb8AO9h-SlpNLg-73" target="SjXOArpb8AO9h-SlpNLg-114" edge="1">
          <mxGeometry relative="1" as="geometry">
            <mxPoint x="1685" y="260" as="sourcePoint" />
          </mxGeometry>
        </mxCell>
        <mxCell id="SjXOArpb8AO9h-SlpNLg-84" value="&lt;font face=&quot;Verdana&quot; style=&quot;font-size: 12px;&quot;&gt;attributed_by&lt;/font&gt;" style="edgeLabel;html=1;align=center;verticalAlign=middle;resizable=0;points=[];" parent="SjXOArpb8AO9h-SlpNLg-83" vertex="1" connectable="0">
          <mxGeometry x="-0.0411" y="-1" relative="1" as="geometry">
            <mxPoint as="offset" />
          </mxGeometry>
        </mxCell>
        <mxCell id="SjXOArpb8AO9h-SlpNLg-86" style="edgeStyle=none;rounded=1;html=1;labelBackgroundColor=#FFFFFF;startArrow=none;startFill=0;startSize=5;endArrow=classicThin;endFill=1;endSize=5;jettySize=auto;orthogonalLoop=1;strokeColor=#B3B3B3;strokeWidth=1;fontFamily=Verdana;fontSize=12" parent="1" source="SjXOArpb8AO9h-SlpNLg-89" target="SjXOArpb8AO9h-SlpNLg-90" edge="1">
          <mxGeometry relative="1" as="geometry" />
        </mxCell>
        <mxCell id="SjXOArpb8AO9h-SlpNLg-87" value="&lt;font style=&quot;font-size: 12px;&quot; face=&quot;Verdana&quot;&gt;identified_by&lt;/font&gt;" style="edgeLabel;html=1;align=center;verticalAlign=middle;resizable=0;points=[];labelBackgroundColor=#FFFFFF;" parent="SjXOArpb8AO9h-SlpNLg-86" vertex="1" connectable="0">
          <mxGeometry x="-0.08" y="-2" relative="1" as="geometry">
            <mxPoint as="offset" />
          </mxGeometry>
        </mxCell>
        <mxCell id="SjXOArpb8AO9h-SlpNLg-88" value="created_by" style="edgeStyle=none;rounded=1;html=1;labelBackgroundColor=#FFFFFF;startArrow=none;startFill=0;startSize=5;endArrow=classicThin;endFill=1;endSize=5;jettySize=auto;orthogonalLoop=1;strokeColor=#B3B3B3;strokeWidth=1;fontFamily=Verdana;fontSize=12" parent="1" source="SjXOArpb8AO9h-SlpNLg-89" target="SjXOArpb8AO9h-SlpNLg-93" edge="1">
          <mxGeometry relative="1" as="geometry" />
        </mxCell>
        <mxCell id="SjXOArpb8AO9h-SlpNLg-89" value="&lt;div&gt;&lt;span style=&quot;background-color: initial;&quot;&gt;HumanMadeObject&lt;/span&gt;&lt;/div&gt;&lt;div&gt;&lt;span style=&quot;font-size: 11px; background-color: initial;&quot;&gt;(Programme&lt;/span&gt;&lt;span style=&quot;font-size: 11px; background-color: initial;&quot;&gt;)&lt;/span&gt;&lt;/div&gt;" style="ellipse;whiteSpace=wrap;html=1;rounded=0;shadow=1;comic=0;labelBackgroundColor=none;strokeWidth=2;fontFamily=Verdana;fontSize=12;align=center;fillColor=#ffff88;strokeColor=#36393d;" parent="1" vertex="1">
          <mxGeometry x="610" y="200" width="130" height="60" as="geometry" />
        </mxCell>
        <mxCell id="SjXOArpb8AO9h-SlpNLg-90" value="&lt;span&gt;Name&lt;/span&gt;&lt;div&gt;&lt;span&gt;&lt;font style=&quot;font-size: 9px;&quot;&gt;(= literal title + language)&lt;/font&gt;&lt;/span&gt;&lt;/div&gt;" style="ellipse;whiteSpace=wrap;html=1;rounded=0;shadow=1;comic=0;labelBackgroundColor=none;strokeWidth=1;fontFamily=Verdana;fontSize=12;align=center;fillColor=#fff2cc;strokeColor=#d6b656;" parent="1" vertex="1">
          <mxGeometry x="620" y="390" width="130" height="60" as="geometry" />
        </mxCell>
        <mxCell id="SjXOArpb8AO9h-SlpNLg-91" value="" style="edgeStyle=none;rounded=1;html=1;labelBackgroundColor=none;startArrow=none;startFill=0;startSize=5;endArrow=classicThin;endFill=1;endSize=5;jettySize=auto;orthogonalLoop=1;strokeColor=#B3B3B3;strokeWidth=1;fontFamily=Verdana;fontSize=12" parent="1" source="SjXOArpb8AO9h-SlpNLg-93" target="SjXOArpb8AO9h-SlpNLg-94" edge="1">
          <mxGeometry relative="1" as="geometry" />
        </mxCell>
        <mxCell id="SjXOArpb8AO9h-SlpNLg-92" value="&lt;font style=&quot;font-size: 13px;&quot; face=&quot;Verdana&quot;&gt;carried_out_by&lt;/font&gt;" style="edgeLabel;html=1;align=center;verticalAlign=middle;resizable=0;points=[];" parent="SjXOArpb8AO9h-SlpNLg-91" vertex="1" connectable="0">
          <mxGeometry x="-0.0337" y="3" relative="1" as="geometry">
            <mxPoint as="offset" />
          </mxGeometry>
        </mxCell>
        <mxCell id="SjXOArpb8AO9h-SlpNLg-93" value="&lt;span&gt;Creation&lt;/span&gt;" style="ellipse;whiteSpace=wrap;html=1;rounded=0;shadow=1;comic=0;labelBackgroundColor=none;strokeWidth=1;fontFamily=Verdana;fontSize=12;align=center;fillColor=#cce5ff;strokeColor=#36393d;" parent="1" vertex="1">
          <mxGeometry x="410" y="270" width="130" height="60" as="geometry" />
        </mxCell>
        <mxCell id="SjXOArpb8AO9h-SlpNLg-94" value="&lt;span&gt;Person / Group&lt;/span&gt;&lt;div&gt;&lt;span&gt;&lt;font style=&quot;font-size: 9px;&quot;&gt;(= author / publications director)&lt;/font&gt;&lt;/span&gt;&lt;/div&gt;" style="ellipse;whiteSpace=wrap;html=1;rounded=0;shadow=1;comic=0;labelBackgroundColor=none;strokeWidth=1;fontFamily=Verdana;fontSize=12;align=center;fillColor=#ffcccc;strokeColor=#36393d;" parent="1" vertex="1">
          <mxGeometry x="238" y="340" width="130" height="60" as="geometry" />
        </mxCell>
        <mxCell id="SjXOArpb8AO9h-SlpNLg-95" value="" style="edgeStyle=none;rounded=1;html=1;labelBackgroundColor=#FFFFFF;startArrow=none;startFill=0;startSize=5;endArrow=classicThin;endFill=1;endSize=5;jettySize=auto;orthogonalLoop=1;strokeColor=#B3B3B3;strokeWidth=1;fontFamily=Verdana;fontSize=12;" parent="1" source="SjXOArpb8AO9h-SlpNLg-89" target="SjXOArpb8AO9h-SlpNLg-97" edge="1">
          <mxGeometry relative="1" as="geometry">
            <mxPoint x="970" y="370" as="sourcePoint" />
          </mxGeometry>
        </mxCell>
        <mxCell id="SjXOArpb8AO9h-SlpNLg-96" value="&lt;font style=&quot;font-size: 12px;&quot; face=&quot;Verdana&quot;&gt;classified_as&lt;/font&gt;" style="edgeLabel;html=1;align=center;verticalAlign=middle;resizable=0;points=[];labelBackgroundColor=#FFFFFF;" parent="SjXOArpb8AO9h-SlpNLg-95" vertex="1" connectable="0">
          <mxGeometry x="-0.1032" y="-1" relative="1" as="geometry">
            <mxPoint y="1" as="offset" />
          </mxGeometry>
        </mxCell>
        <mxCell id="SjXOArpb8AO9h-SlpNLg-97" value="&lt;span&gt;Type&lt;/span&gt;&lt;div&gt;&lt;span&gt;&lt;font style=&quot;font-size: 11px;&quot;&gt;(Show / Festival programme)&lt;/font&gt;&lt;/span&gt;&lt;/div&gt;" style="ellipse;whiteSpace=wrap;html=1;rounded=0;shadow=1;comic=0;labelBackgroundColor=none;strokeWidth=1;fontFamily=Verdana;fontSize=12;align=center;fillColor=#fad7ac;strokeColor=#b46504;" parent="1" vertex="1">
          <mxGeometry x="470" y="100" width="130" height="60" as="geometry" />
        </mxCell>
        <mxCell id="SjXOArpb8AO9h-SlpNLg-98" value="&lt;span&gt;LinguisticObject&lt;/span&gt;&lt;div&gt;&lt;span&gt;&lt;font style=&quot;font-size: 9px;&quot;&gt;(= biography, interview, editorial content...)&lt;/font&gt;&lt;/span&gt;&lt;/div&gt;" style="ellipse;whiteSpace=wrap;html=1;rounded=0;shadow=1;comic=0;labelBackgroundColor=none;strokeWidth=1;fontFamily=Verdana;fontSize=12;align=center;fillColor=#ffff88;strokeColor=#36393d;" parent="1" vertex="1">
          <mxGeometry x="740" y="110" width="130" height="60" as="geometry" />
        </mxCell>
        <mxCell id="SjXOArpb8AO9h-SlpNLg-99" style="edgeStyle=none;rounded=1;html=1;labelBackgroundColor=#FFFFFF;startArrow=none;startFill=0;startSize=5;endArrow=classicThin;endFill=1;endSize=5;jettySize=auto;orthogonalLoop=1;strokeColor=#B3B3B3;strokeWidth=1;fontFamily=Verdana;fontSize=12" parent="1" source="SjXOArpb8AO9h-SlpNLg-89" target="SjXOArpb8AO9h-SlpNLg-98" edge="1">
          <mxGeometry relative="1" as="geometry">
            <mxPoint x="716" y="266" as="sourcePoint" />
            <mxPoint x="784" y="324" as="targetPoint" />
          </mxGeometry>
        </mxCell>
        <mxCell id="SjXOArpb8AO9h-SlpNLg-100" value="&lt;font style=&quot;font-size: 12px;&quot; face=&quot;Verdana&quot;&gt;carries&lt;/font&gt;" style="edgeLabel;html=1;align=center;verticalAlign=middle;resizable=0;points=[];labelBackgroundColor=#FFFFFF;" parent="SjXOArpb8AO9h-SlpNLg-99" vertex="1" connectable="0">
          <mxGeometry x="-0.08" y="-2" relative="1" as="geometry">
            <mxPoint as="offset" />
          </mxGeometry>
        </mxCell>
        <mxCell id="SjXOArpb8AO9h-SlpNLg-101" style="edgeStyle=none;rounded=1;html=1;labelBackgroundColor=#FFFFFF;startArrow=none;startFill=0;startSize=5;endArrow=classicThin;endFill=1;endSize=5;jettySize=auto;orthogonalLoop=1;strokeColor=#B3B3B3;strokeWidth=1;fontFamily=Verdana;fontSize=12" parent="1" source="SjXOArpb8AO9h-SlpNLg-104" target="SjXOArpb8AO9h-SlpNLg-105" edge="1">
          <mxGeometry relative="1" as="geometry" />
        </mxCell>
        <mxCell id="SjXOArpb8AO9h-SlpNLg-102" value="&lt;font style=&quot;font-size: 12px;&quot; face=&quot;Verdana&quot;&gt;identified_by&lt;/font&gt;" style="edgeLabel;html=1;align=center;verticalAlign=middle;resizable=0;points=[];labelBackgroundColor=#FFFFFF;" parent="SjXOArpb8AO9h-SlpNLg-101" vertex="1" connectable="0">
          <mxGeometry x="-0.08" y="-2" relative="1" as="geometry">
            <mxPoint as="offset" />
          </mxGeometry>
        </mxCell>
        <mxCell id="SjXOArpb8AO9h-SlpNLg-103" value="created_by" style="edgeStyle=none;rounded=1;html=1;labelBackgroundColor=#FFFFFF;startArrow=none;startFill=0;startSize=5;endArrow=classicThin;endFill=1;endSize=5;jettySize=auto;orthogonalLoop=1;strokeColor=#B3B3B3;strokeWidth=1;fontFamily=Verdana;fontSize=12" parent="1" source="SjXOArpb8AO9h-SlpNLg-104" target="SjXOArpb8AO9h-SlpNLg-108" edge="1">
          <mxGeometry relative="1" as="geometry" />
        </mxCell>
        <mxCell id="SjXOArpb8AO9h-SlpNLg-104" value="LinguisticObject&lt;div&gt;&lt;span style=&quot;font-size: 11px; background-color: initial;&quot;&gt;(Play&lt;/span&gt;&lt;span style=&quot;font-size: 11px; background-color: initial;&quot;&gt;)&lt;/span&gt;&lt;/div&gt;" style="ellipse;whiteSpace=wrap;html=1;rounded=0;shadow=1;comic=0;labelBackgroundColor=none;strokeWidth=2;fontFamily=Verdana;fontSize=12;align=center;fillColor=#ffff88;strokeColor=#36393d;" parent="1" vertex="1">
          <mxGeometry x="360" y="1060" width="130" height="60" as="geometry" />
        </mxCell>
        <mxCell id="SjXOArpb8AO9h-SlpNLg-105" value="&lt;span&gt;Name&lt;/span&gt;&lt;div&gt;&lt;span&gt;&lt;font style=&quot;font-size: 9px;&quot;&gt;(= literal title + language)&lt;/font&gt;&lt;/span&gt;&lt;/div&gt;" style="ellipse;whiteSpace=wrap;html=1;rounded=0;shadow=1;comic=0;labelBackgroundColor=none;strokeWidth=1;fontFamily=Verdana;fontSize=12;align=center;fillColor=#fad7ac;strokeColor=#b46504;" parent="1" vertex="1">
          <mxGeometry x="108" y="1060" width="130" height="60" as="geometry" />
        </mxCell>
        <mxCell id="SjXOArpb8AO9h-SlpNLg-106" value="" style="edgeStyle=none;rounded=1;html=1;labelBackgroundColor=none;startArrow=none;startFill=0;startSize=5;endArrow=classicThin;endFill=1;endSize=5;jettySize=auto;orthogonalLoop=1;strokeColor=#B3B3B3;strokeWidth=1;fontFamily=Verdana;fontSize=12" parent="1" source="SjXOArpb8AO9h-SlpNLg-108" target="SjXOArpb8AO9h-SlpNLg-109" edge="1">
          <mxGeometry relative="1" as="geometry" />
        </mxCell>
        <mxCell id="SjXOArpb8AO9h-SlpNLg-107" value="&lt;font style=&quot;font-size: 12px;&quot; face=&quot;Verdana&quot;&gt;carried_out_by&lt;/font&gt;" style="edgeLabel;html=1;align=center;verticalAlign=middle;resizable=0;points=[];" parent="SjXOArpb8AO9h-SlpNLg-106" vertex="1" connectable="0">
          <mxGeometry x="-0.0337" y="3" relative="1" as="geometry">
            <mxPoint as="offset" />
          </mxGeometry>
        </mxCell>
        <mxCell id="SjXOArpb8AO9h-SlpNLg-108" value="&lt;span&gt;Creation&lt;/span&gt;" style="ellipse;whiteSpace=wrap;html=1;rounded=0;shadow=1;comic=0;labelBackgroundColor=none;strokeWidth=1;fontFamily=Verdana;fontSize=12;align=center;fillColor=#cce5ff;strokeColor=#36393d;" parent="1" vertex="1">
          <mxGeometry x="590" y="1060" width="130" height="60" as="geometry" />
        </mxCell>
        <mxCell id="SjXOArpb8AO9h-SlpNLg-109" value="&lt;span&gt;Person&lt;/span&gt;&lt;div&gt;&lt;span&gt;&lt;font style=&quot;font-size: 9px;&quot;&gt;(= author)&lt;/font&gt;&lt;/span&gt;&lt;/div&gt;" style="ellipse;whiteSpace=wrap;html=1;rounded=0;shadow=1;comic=0;labelBackgroundColor=none;strokeWidth=1;fontFamily=Verdana;fontSize=12;align=center;fillColor=#ffcccc;strokeColor=#36393d;" parent="1" vertex="1">
          <mxGeometry x="440" y="1170" width="130" height="60" as="geometry" />
        </mxCell>
        <mxCell id="SjXOArpb8AO9h-SlpNLg-110" value="" style="edgeStyle=none;rounded=1;html=1;labelBackgroundColor=#FFFFFF;startArrow=none;startFill=0;startSize=5;endArrow=classicThin;endFill=1;endSize=5;jettySize=auto;orthogonalLoop=1;strokeColor=#B3B3B3;strokeWidth=1;fontFamily=Verdana;fontSize=12;" parent="1" source="SjXOArpb8AO9h-SlpNLg-108" target="SjXOArpb8AO9h-SlpNLg-112" edge="1">
          <mxGeometry relative="1" as="geometry">
            <mxPoint x="808" y="1020" as="sourcePoint" />
          </mxGeometry>
        </mxCell>
        <mxCell id="SjXOArpb8AO9h-SlpNLg-111" value="&lt;font style=&quot;font-size: 12px;&quot; face=&quot;Verdana&quot;&gt;timespan&lt;/font&gt;" style="edgeLabel;html=1;align=center;verticalAlign=middle;resizable=0;points=[];labelBackgroundColor=#FFFFFF;" parent="SjXOArpb8AO9h-SlpNLg-110" vertex="1" connectable="0">
          <mxGeometry x="-0.1032" y="-1" relative="1" as="geometry">
            <mxPoint y="1" as="offset" />
          </mxGeometry>
        </mxCell>
        <mxCell id="SjXOArpb8AO9h-SlpNLg-112" value="&lt;span&gt;TimeSpan&lt;/span&gt;&lt;div&gt;&lt;span&gt;&lt;font style=&quot;font-size: 9px;&quot;&gt;(= premiere date)&lt;/font&gt;&lt;/span&gt;&lt;/div&gt;" style="ellipse;whiteSpace=wrap;html=1;rounded=0;shadow=1;comic=0;labelBackgroundColor=none;strokeWidth=1;fontFamily=Verdana;fontSize=12;align=center;fillColor=#dae8fc;strokeColor=#6c8ebf;" parent="1" vertex="1">
          <mxGeometry x="660" y="1170" width="130" height="60" as="geometry" />
        </mxCell>
        <mxCell id="SjXOArpb8AO9h-SlpNLg-113" value="&lt;span&gt;AttributeAssignment&lt;/span&gt;" style="ellipse;whiteSpace=wrap;html=1;rounded=0;shadow=1;comic=0;labelBackgroundColor=none;strokeWidth=1;fontFamily=Verdana;fontSize=12;align=center;fillColor=#cce5ff;strokeColor=#36393d;" parent="1" vertex="1">
          <mxGeometry x="410" y="480" width="130" height="60" as="geometry" />
        </mxCell>
        <mxCell id="SjXOArpb8AO9h-SlpNLg-114" value="&lt;span&gt;AttributeAssignment&lt;/span&gt;" style="ellipse;whiteSpace=wrap;html=1;rounded=0;shadow=1;comic=0;labelBackgroundColor=none;strokeWidth=1;fontFamily=Verdana;fontSize=12;align=center;fillColor=#cce5ff;strokeColor=#36393d;" parent="1" vertex="1">
          <mxGeometry x="1100" y="200" width="130" height="60" as="geometry" />
        </mxCell>
        <mxCell id="SjXOArpb8AO9h-SlpNLg-115" value="&lt;span&gt;AttributeAssignment&lt;/span&gt;" style="ellipse;whiteSpace=wrap;html=1;rounded=0;shadow=1;comic=0;labelBackgroundColor=none;strokeWidth=1;fontFamily=Verdana;fontSize=12;align=center;fillColor=#cce5ff;strokeColor=#36393d;" parent="1" vertex="1">
          <mxGeometry x="1430" y="630" width="130" height="60" as="geometry" />
        </mxCell>
        <mxCell id="SjXOArpb8AO9h-SlpNLg-117" value="assigned" style="edgeStyle=none;rounded=1;html=1;labelBackgroundColor=#FFFFFF;startArrow=none;startFill=0;startSize=5;endArrow=classicThin;endFill=1;endSize=5;jettySize=auto;orthogonalLoop=1;strokeColor=#B3B3B3;strokeWidth=1;fontFamily=Verdana;fontSize=12" parent="1" source="SjXOArpb8AO9h-SlpNLg-113" target="SjXOArpb8AO9h-SlpNLg-89" edge="1">
          <mxGeometry relative="1" as="geometry">
            <mxPoint x="914" y="542" as="sourcePoint" />
            <mxPoint x="716" y="278" as="targetPoint" />
          </mxGeometry>
        </mxCell>
        <mxCell id="SjXOArpb8AO9h-SlpNLg-118" value="assigned" style="edgeStyle=none;rounded=1;html=1;labelBackgroundColor=#FFFFFF;startArrow=none;startFill=0;startSize=5;endArrow=classicThin;endFill=1;endSize=5;jettySize=auto;orthogonalLoop=1;strokeColor=#B3B3B3;strokeWidth=1;fontFamily=Verdana;fontSize=12" parent="1" source="SjXOArpb8AO9h-SlpNLg-115" target="SjXOArpb8AO9h-SlpNLg-89" edge="1">
          <mxGeometry relative="1" as="geometry">
            <mxPoint x="924" y="552" as="sourcePoint" />
            <mxPoint x="726" y="288" as="targetPoint" />
          </mxGeometry>
        </mxCell>
        <mxCell id="SjXOArpb8AO9h-SlpNLg-119" value="assigned" style="edgeStyle=none;rounded=1;html=1;labelBackgroundColor=#FFFFFF;startArrow=none;startFill=0;startSize=5;endArrow=classicThin;endFill=1;endSize=5;jettySize=auto;orthogonalLoop=1;strokeColor=#B3B3B3;strokeWidth=1;fontFamily=Verdana;fontSize=12" parent="1" source="SjXOArpb8AO9h-SlpNLg-114" target="SjXOArpb8AO9h-SlpNLg-89" edge="1">
          <mxGeometry relative="1" as="geometry">
            <mxPoint x="934" y="562" as="sourcePoint" />
            <mxPoint x="736" y="298" as="targetPoint" />
          </mxGeometry>
        </mxCell>
        <mxCell id="x-NXpCWu1mLe_AWcf6ae-1" value="&lt;div&gt;&lt;font style=&quot;&quot;&gt;Content&lt;/font&gt;&lt;/div&gt;&lt;div&gt;&lt;font style=&quot;font-size: 8px;&quot;&gt;(character)&lt;/font&gt;&lt;/div&gt;" style="ellipse;whiteSpace=wrap;html=1;rounded=0;shadow=1;comic=0;labelBackgroundColor=none;strokeWidth=1;fontFamily=Verdana;fontSize=12;align=center;fillColor=#eeeeee;strokeColor=#B3B3B3;" parent="1" vertex="1">
          <mxGeometry x="1018" y="1090.6699999999998" width="130" height="60" as="geometry" />
        </mxCell>
        <mxCell id="x-NXpCWu1mLe_AWcf6ae-2" value="&lt;font style=&quot;color: rgb(179, 179, 179);&quot;&gt;Portrayed&lt;/font&gt;" style="edgeStyle=none;rounded=1;html=1;labelBackgroundColor=#FFFFFF;startArrow=none;startFill=0;startSize=5;endArrow=classicThin;endFill=1;endSize=5;jettySize=auto;orthogonalLoop=1;strokeColor=#B3B3B3;strokeWidth=1;fontFamily=Verdana;fontSize=12;dashed=1;" parent="1" source="SjXOArpb8AO9h-SlpNLg-47" target="x-NXpCWu1mLe_AWcf6ae-1" edge="1">
          <mxGeometry relative="1" as="geometry">
            <mxPoint x="1098.0031901704838" y="979.9980982951613" as="sourcePoint" />
            <mxPoint x="1118" y="890.67" as="targetPoint" />
          </mxGeometry>
        </mxCell>
        <mxCell id="Db7EYiY2nObxvuQxKgXs-1" value="&lt;span style=&quot;background-color: rgb(255, 255, 255);&quot;&gt;classified_as&lt;/span&gt;" style="edgeStyle=none;rounded=1;html=1;labelBackgroundColor=#FFFFFF;startArrow=none;startFill=0;startSize=5;endArrow=classicThin;endFill=1;endSize=5;jettySize=auto;orthogonalLoop=1;strokeColor=#B3B3B3;strokeWidth=1;fontFamily=Verdana;fontSize=12" edge="1" parent="1" source="Db7EYiY2nObxvuQxKgXs-2" target="Db7EYiY2nObxvuQxKgXs-9">
          <mxGeometry relative="1" as="geometry" />
        </mxCell>
        <mxCell id="Db7EYiY2nObxvuQxKgXs-2" value="&lt;div&gt;Activity&lt;/div&gt;&lt;div&gt;&lt;font style=&quot;font-size: 11px;&quot;&gt;(Festival, programming)&lt;/font&gt;&lt;/div&gt;" style="ellipse;whiteSpace=wrap;html=1;rounded=0;shadow=1;comic=0;labelBackgroundColor=none;strokeWidth=2;fontFamily=Verdana;fontSize=12;align=center;fillColor=#1ba1e2;strokeColor=#36393D;fontColor=#ffffff;" vertex="1" parent="1">
          <mxGeometry x="1230" y="990" width="130" height="60" as="geometry" />
        </mxCell>
        <mxCell id="Db7EYiY2nObxvuQxKgXs-3" value="took_place_at" style="edgeStyle=none;rounded=1;html=1;labelBackgroundColor=#FFFFFF;startArrow=none;startFill=0;startSize=5;endArrow=classicThin;endFill=1;endSize=5;jettySize=auto;orthogonalLoop=1;strokeColor=#B3B3B3;strokeWidth=1;fontFamily=Verdana;fontSize=12" edge="1" parent="1" source="Db7EYiY2nObxvuQxKgXs-2" target="Db7EYiY2nObxvuQxKgXs-7">
          <mxGeometry relative="1" as="geometry" />
        </mxCell>
        <mxCell id="Db7EYiY2nObxvuQxKgXs-4" value="timespan" style="edgeStyle=none;rounded=1;html=1;labelBackgroundColor=#FFFFFF;startArrow=none;startFill=0;startSize=5;endArrow=classicThin;endFill=1;endSize=5;jettySize=auto;orthogonalLoop=1;strokeColor=#B3B3B3;strokeWidth=1;fontFamily=Verdana;fontSize=12" edge="1" parent="1" source="Db7EYiY2nObxvuQxKgXs-2" target="Db7EYiY2nObxvuQxKgXs-6">
          <mxGeometry relative="1" as="geometry" />
        </mxCell>
        <mxCell id="Db7EYiY2nObxvuQxKgXs-5" value="used_specific_object" style="edgeStyle=none;rounded=1;html=1;labelBackgroundColor=#FFFFFF;startArrow=none;startFill=0;startSize=5;endArrow=classicThin;endFill=1;endSize=5;jettySize=auto;orthogonalLoop=1;strokeColor=#B3B3B3;strokeWidth=1;fontFamily=Verdana;fontSize=12" edge="1" parent="1" source="Db7EYiY2nObxvuQxKgXs-2" target="Db7EYiY2nObxvuQxKgXs-8">
          <mxGeometry relative="1" as="geometry" />
        </mxCell>
        <mxCell id="Db7EYiY2nObxvuQxKgXs-6" value="&lt;span&gt;TimeSpan&lt;/span&gt;&lt;div&gt;&lt;span&gt;&lt;font style=&quot;font-size: 9px;&quot;&gt;(= starting and ending dates of the Production)&lt;/font&gt;&lt;/span&gt;&lt;/div&gt;" style="ellipse;whiteSpace=wrap;html=1;rounded=0;shadow=1;comic=0;labelBackgroundColor=none;strokeWidth=1;fontFamily=Verdana;fontSize=12;align=center;fillColor=#b0e3e6;strokeColor=#0e8088;" vertex="1" parent="1">
          <mxGeometry x="1460" y="1010" width="130" height="60" as="geometry" />
        </mxCell>
        <mxCell id="Db7EYiY2nObxvuQxKgXs-7" value="&lt;span&gt;Place&lt;/span&gt;&lt;div&gt;&lt;span&gt;&lt;font style=&quot;font-size: 9px;&quot;&gt;(= city or theatre)&lt;/font&gt;&lt;/span&gt;&lt;/div&gt;" style="ellipse;whiteSpace=wrap;html=1;rounded=0;shadow=1;comic=0;labelBackgroundColor=none;strokeWidth=1;fontFamily=Verdana;fontSize=12;align=center;fillColor=#cdeb8b;strokeColor=#36393d;" vertex="1" parent="1">
          <mxGeometry x="1460" y="910" width="130" height="60" as="geometry" />
        </mxCell>
        <mxCell id="Db7EYiY2nObxvuQxKgXs-8" value="HumanMadeObject&lt;div&gt;&lt;font style=&quot;font-size: 9px;&quot;&gt;(= playbill, programme&lt;/font&gt;&lt;span style=&quot;font-size: 9px; background-color: transparent; color: light-dark(rgb(0, 0, 0), rgb(255, 255, 255));&quot;&gt;)&lt;/span&gt;&lt;/div&gt;" style="ellipse;whiteSpace=wrap;html=1;rounded=0;shadow=1;comic=0;labelBackgroundColor=none;strokeWidth=1;fontFamily=Verdana;fontSize=12;align=center;fillColor=#ffff88;strokeColor=#36393d;" vertex="1" parent="1">
          <mxGeometry x="1450" y="1130" width="130" height="60" as="geometry" />
        </mxCell>
        <mxCell id="Db7EYiY2nObxvuQxKgXs-9" value="type&lt;div style=&quot;font-size: 11px;&quot;&gt;(ArtFestival&lt;span style=&quot;background-color: transparent; color: light-dark(rgb(0, 0, 0), rgb(255, 255, 255));&quot;&gt;)&lt;/span&gt;&lt;/div&gt;" style="ellipse;whiteSpace=wrap;html=1;rounded=0;shadow=1;comic=0;labelBackgroundColor=none;strokeWidth=1;fontFamily=Verdana;fontSize=12;align=center;rotation=0;fillColor=#ffcc99;strokeColor=#36393d;" vertex="1" parent="1">
          <mxGeometry x="1168" y="1130" width="130" height="60" as="geometry" />
        </mxCell>
        <mxCell id="Db7EYiY2nObxvuQxKgXs-10" value="identified_by" style="edgeStyle=none;rounded=1;html=1;labelBackgroundColor=#FFFFFF;startArrow=none;startFill=0;startSize=5;endArrow=classicThin;endFill=1;endSize=5;jettySize=auto;orthogonalLoop=1;strokeColor=#B3B3B3;strokeWidth=1;fontFamily=Verdana;fontSize=12" edge="1" parent="1" source="Db7EYiY2nObxvuQxKgXs-2" target="Db7EYiY2nObxvuQxKgXs-11">
          <mxGeometry relative="1" as="geometry" />
        </mxCell>
        <mxCell id="Db7EYiY2nObxvuQxKgXs-11" value="&lt;span&gt;Name&lt;/span&gt;&lt;div&gt;&lt;span&gt;&lt;font style=&quot;font-size: 9px;&quot;&gt;(= literal title)&lt;/font&gt;&lt;/span&gt;&lt;/div&gt;" style="ellipse;whiteSpace=wrap;html=1;rounded=0;shadow=1;comic=0;labelBackgroundColor=none;strokeWidth=1;fontFamily=Verdana;fontSize=12;align=center;rotation=0;fillColor=#f0a30a;strokeColor=#BD7000;fontColor=#000000;" vertex="1" parent="1">
          <mxGeometry x="1300" y="1200" width="130" height="60" as="geometry" />
        </mxCell>
      </root>
    </mxGraphModel>
  </diagram>
</mxfile>
